<svg width="370" height="410" viewBox="0 0 370 410" fill="none" xmlns="http://www.w3.org/2000/svg">
<path d="M225.96 0.200012H144.04C65.192 0.200012 0.680008 64.712 0.680008 143.56V205C0.680008 260.296 32.936 310.984 82.6 334.536V403.144C82.6 409.288 90.28 412.36 94.376 407.752L153.768 348.36H225.96C304.808 348.36 369.32 283.848 369.32 205V143.56C369.32 64.712 304.808 0.200012 225.96 0.200012ZM279.72 269L258.728 289.48C236.712 310.984 179.88 286.408 129.704 235.208C79.528 184.008 57.512 126.664 78.504 105.16L98.984 84.68C106.664 77 119.464 77.512 128.168 85.192L157.864 115.912C168.616 126.664 164.008 145.096 150.184 149.192C140.456 152.264 133.8 163.016 136.872 172.744C141.992 195.272 170.664 223.944 192.168 229.576C201.896 231.624 212.648 226.504 216.232 216.776C220.84 202.952 239.272 198.856 249.512 209.608L279.208 240.328C287.4 247.496 287.4 260.296 279.72 269ZM203.432 97.48C201.384 97.48 199.336 97.48 197.288 97.992C193.704 98.504 190.12 95.432 189.608 91.848C189.096 88.264 192.168 84.68 195.752 84.168C198.312 83.656 200.872 83.656 203.432 83.656C240.808 83.656 271.528 114.376 271.528 151.752C271.528 154.312 271.528 156.872 271.016 159.432C270.504 163.016 266.92 166.088 263.336 165.576C259.752 165.064 256.68 161.48 257.192 157.896C257.192 155.848 257.704 153.8 257.704 151.752C258.216 122.056 233.64 97.48 203.432 97.48ZM244.392 152.264C244.392 155.848 241.32 158.92 237.736 158.92C234.152 158.92 231.08 155.848 231.08 152.264C231.08 137.416 218.792 125.128 203.944 125.128C200.36 125.128 197.288 122.056 197.288 118.472C197.288 114.888 200.36 111.816 203.944 111.816C225.96 111.304 244.392 129.736 244.392 152.264ZM296.616 174.28C295.592 177.864 292.008 180.424 287.912 179.4C284.328 178.376 282.28 174.792 283.304 171.208C284.84 165.064 285.352 158.92 285.352 152.264C285.352 107.208 248.488 70.344 203.432 70.344H197.288C193.704 70.344 190.12 67.784 190.12 64.2C190.12 60.616 192.68 57.032 196.264 57.032C198.824 57.032 201.384 56.52 203.432 56.52C256.168 56.52 299.176 99.528 299.176 152.264C299.176 159.432 298.152 167.112 296.616 174.28Z" fill="white"/>
</svg>
